<?xml version="1.0" encoding="utf-8"?>
<!-- Generator: Adobe Illustrator 24.1.3, SVG Export Plug-In . SVG Version: 6.00 Build 0)  -->
<svg version="1.1" id="Layer_1" xmlns="http://www.w3.org/2000/svg" xmlns:xlink="http://www.w3.org/1999/xlink" x="0px" y="0px"
	 viewBox="0 0 26 24" style="enable-background:new 0 0 26 24;" xml:space="preserve">
<style type="text/css">
	.st0{fill:none;stroke:#203C52;stroke-width:1.5;stroke-linejoin:round;stroke-miterlimit:10;}
</style>
<path class="st0" d="M21.08,8.82c1.32,1.3,2.64,2.61,3.95,3.93c0.13,0.12,0.19,0.25,0.17,0.43c-0.01,0.4,0,0.8,0,1.24
	c-0.96,0-1.91,0-2.9,0c0,2.66,0,5.28,0,7.92c-2.89,0-4.44,0-7.33,0c0-1.27,0-6.52,0-7.78c-0.48,0-3.54,0-4.04,0
	c0,1.27,0,6.52,0,7.78c-2.85,0-4.39,0-7.25,0c0-2.61,0-5.24,0-7.9c-1,0-1.95,0-2.93,0c0-0.5-0.01-0.96,0.01-1.42
	c0-0.09,0.1-0.19,0.17-0.26c2.2-2.2,4.41-4.39,6.62-6.58c1.74-1.73,3.47-3.46,5.19-5.18c0.07-0.07,0.14-0.13,0.24-0.23
	c1.17,1.19,2.32,2.37,3.48,3.54L21.08,8.82z"/>
</svg>
