<?xml version="1.0" encoding="utf-8"?>
<!-- Generator: Adobe Illustrator 24.1.3, SVG Export Plug-In . SVG Version: 6.00 Build 0)  -->
<svg version="1.1" id="Layer_1" xmlns="http://www.w3.org/2000/svg" xmlns:xlink="http://www.w3.org/1999/xlink" x="0px" y="0px"
	 viewBox="0 0 25 25" style="enable-background:new 0 0 25 25;" xml:space="preserve">
<style type="text/css">
	.st0{fill:#314A5D;}
	.st1{font-family:'Arvo-Bold';}
	.st2{font-size:14px;}
	.st3{clip-path:url(#SVGID_2_);fill:none;stroke:#314A5D;stroke-width:1.5;}
</style>
<text transform="matrix(1 0 0 1 10.0342 17.8428)" class="st0 st1 st2">i</text>
<g>
	<defs>
		<path id="SVGID_1_" d="M0,25V12.5c0-1.66,0.32-3.25,0.95-4.78s1.54-2.88,2.71-4.06s2.52-2.08,4.06-2.71C9.25,0.32,10.84,0,12.5,0
			c1.66,0,3.25,0.32,4.78,0.95c1.53,0.63,2.88,1.54,4.06,2.71c1.17,1.17,2.08,2.52,2.71,4.06S25,10.84,25,12.5
			c0,1.66-0.32,3.25-0.95,4.78s-1.54,2.88-2.71,4.06c-1.17,1.17-2.52,2.08-4.06,2.71S14.16,25,12.5,25H0z"/>
	</defs>
	<clipPath id="SVGID_2_">
		<use xlink:href="#SVGID_1_"  style="overflow:visible;"/>
	</clipPath>
	<path class="st3" d="M0.75,24.25V12.5c0-0.77,0.08-1.54,0.23-2.29S1.35,8.72,1.64,8c0.3-0.71,0.66-1.39,1.09-2.03
		c0.43-0.64,0.92-1.24,1.46-1.78c0.55-0.55,1.14-1.03,1.78-1.46C6.61,2.3,7.29,1.94,8,1.64s1.45-0.52,2.2-0.67s1.52-0.23,2.29-0.23
		s1.54,0.08,2.29,0.23c0.76,0.15,1.49,0.37,2.2,0.67s1.39,0.66,2.03,1.09c0.64,0.43,1.24,0.92,1.78,1.46
		c0.55,0.55,1.03,1.14,1.46,1.78C22.7,6.61,23.06,7.29,23.36,8c0.3,0.71,0.52,1.45,0.67,2.2c0.15,0.76,0.23,1.52,0.23,2.29
		s-0.08,1.54-0.23,2.29c-0.15,0.76-0.37,1.49-0.67,2.2c-0.3,0.71-0.66,1.39-1.09,2.03c-0.43,0.64-0.92,1.24-1.46,1.78
		s-1.14,1.03-1.78,1.46c-0.64,0.43-1.32,0.79-2.03,1.09c-0.71,0.3-1.45,0.52-2.2,0.67c-0.76,0.15-1.52,0.23-2.29,0.23H0.75z"/>
</g>
</svg>
