<?xml version="1.0" encoding="utf-8"?>
<!-- Generator: Adobe Illustrator 24.1.0, SVG Export Plug-In . SVG Version: 6.00 Build 0)  -->
<svg version="1.1" id="Layer_1" xmlns="http://www.w3.org/2000/svg" xmlns:xlink="http://www.w3.org/1999/xlink" x="0px" y="0px"
	 viewBox="0 0 25 28" style="enable-background:new 0 0 25 28;" xml:space="preserve">
<style type="text/css">
	.st0{fill:none;stroke:#FFFFFF;stroke-width:2;stroke-miterlimit:10;}
	.st1{fill:none;stroke:#FFFFFF;stroke-width:2;stroke-linecap:round;}
</style>
<path class="st0" d="M12.5,21.8c-1.3,0-2.6,0-3.9,0c-0.9,0-1.2-0.3-1.3-1.3c0-2.1,0-4.2,0-6.3c0-0.6-0.2-0.8-0.8-0.8
	c-1.4,0-2.9,0-4.3,0c-0.5,0-0.9-0.1-1.1-0.6c-0.2-0.5,0-0.9,0.4-1.2C4.8,8.3,8.2,4.9,11.6,1.5c0.6-0.6,1.1-0.6,1.6,0
	c3.4,3.4,6.8,6.8,10.2,10.2c0.3,0.3,0.5,0.7,0.3,1.2c-0.2,0.5-0.6,0.6-1.1,0.6c-1.4,0-2.9,0-4.3,0c-0.6,0-0.8,0.1-0.8,0.8
	c0,2.1,0,4.1,0,6.2c0,1.1-0.3,1.4-1.4,1.4C15,21.8,13.7,21.8,12.5,21.8z"/>
<line class="st1" x1="7.3" y1="26.8" x2="17.5" y2="26.8"/>
</svg>
