<?xml version="1.0" encoding="utf-8"?>
<!-- Generator: Adobe Illustrator 24.1.0, SVG Export Plug-In . SVG Version: 6.00 Build 0)  -->
<svg version="1.1" id="Layer_1" xmlns="http://www.w3.org/2000/svg" xmlns:xlink="http://www.w3.org/1999/xlink" x="0px" y="0px"
	 viewBox="0 0 32 16" style="enable-background:new 0 0 32 16;" xml:space="preserve">
<style type="text/css">
	.st0{fill:none;stroke:#314A5D;stroke-width:1.8;stroke-linecap:round;stroke-linejoin:round;}
</style>
<path class="st0" d="M21.4,14.3v-1.5c0-1.6-1.3-3-3-3h-5.9c-1.6,0-3,1.3-3,3v1.5"/>
<path class="st0" d="M15.5,0.9c0.4,0,0.8,0.1,1.1,0.2c0.4,0.2,0.7,0.4,1,0.6c0.3,0.3,0.5,0.6,0.6,1c0.2,0.4,0.2,0.7,0.2,1.1
	c0,0.4-0.1,0.8-0.2,1.1s-0.4,0.7-0.6,1c-0.3,0.3-0.6,0.5-1,0.6c-0.4,0.2-0.7,0.2-1.1,0.2c-0.4,0-0.8-0.1-1.1-0.2
	c-0.4-0.2-0.7-0.4-1-0.6c-0.3-0.3-0.5-0.6-0.6-1c-0.2-0.4-0.2-0.7-0.2-1.1s0.1-0.8,0.2-1.1c0.2-0.4,0.4-0.7,0.6-1
	c0.3-0.3,0.6-0.5,1-0.6C14.7,1,15.1,0.9,15.5,0.9z"/>
<path class="st0" d="M6.2,9.8H3.9c-1.6,0-3,1.3-3,3v1.5"/>
<path class="st0" d="M6.8,0.9C7.2,0.9,7.6,1,8,1.1c0.4,0.2,0.7,0.4,1,0.6c0.3,0.3,0.5,0.6,0.6,1c0.2,0.4,0.2,0.7,0.2,1.1
	c0,0.4-0.1,0.8-0.2,1.1C9.4,5.4,9.2,5.7,8.9,6C8.7,6.2,8.3,6.5,8,6.6C7.6,6.8,7.2,6.8,6.8,6.8c-0.4,0-0.8-0.1-1.1-0.2
	C5.3,6.5,5,6.2,4.7,6C4.5,5.7,4.2,5.4,4.1,5S3.9,4.3,3.9,3.9s0.1-0.8,0.2-1.1c0.2-0.4,0.4-0.7,0.6-1c0.3-0.3,0.6-0.5,1-0.6
	C6.1,1,6.4,0.9,6.8,0.9z"/>
<path class="st0" d="M24.9,9.8h2.4c1.6,0,3,1.3,3,3v1.5"/>
<path class="st0" d="M24.3,0.9c0.4,0,0.8,0.1,1.1,0.2c0.4,0.2,0.7,0.4,1,0.6c0.3,0.3,0.5,0.6,0.6,1c0.2,0.4,0.2,0.7,0.2,1.1
	c0,0.4-0.1,0.8-0.2,1.1s-0.4,0.7-0.6,1c-0.3,0.3-0.6,0.5-1,0.6c-0.4,0.2-0.7,0.2-1.1,0.2s-0.8-0.1-1.1-0.2c-0.4-0.2-0.7-0.4-1-0.6
	c-0.3-0.3-0.5-0.6-0.6-1s-0.2-0.7-0.2-1.1s0.1-0.8,0.2-1.1c0.2-0.4,0.4-0.7,0.6-1c0.3-0.3,0.6-0.5,1-0.6C23.5,1,23.9,0.9,24.3,0.9z"
	/>
</svg>
