<?xml version="1.0" encoding="utf-8"?>
<!-- Generator: Adobe Illustrator 24.1.3, SVG Export Plug-In . SVG Version: 6.00 Build 0)  -->
<svg version="1.1" id="Layer_1" xmlns="http://www.w3.org/2000/svg" xmlns:xlink="http://www.w3.org/1999/xlink" x="0px" y="0px"
	 viewBox="0 0 14 14" style="enable-background:new 0 0 14 14;" xml:space="preserve">
<style type="text/css">
	.st0{fill:#798A97;}
	.st1{fill:none;stroke:#203C52;stroke-width:1.3;stroke-linecap:round;}
</style>
<path class="st0" d="M7,0c0.46,0,0.91,0.04,1.37,0.13c0.45,0.09,0.89,0.22,1.31,0.4c0.42,0.18,0.83,0.39,1.21,0.65
	s0.74,0.55,1.06,0.87c0.33,0.33,0.62,0.68,0.87,1.06c0.26,0.38,0.47,0.79,0.65,1.21c0.18,0.42,0.31,0.86,0.4,1.31
	C13.96,6.09,14,6.54,14,7c0,0.46-0.04,0.91-0.13,1.37s-0.22,0.89-0.4,1.31c-0.18,0.42-0.39,0.83-0.65,1.21s-0.55,0.74-0.87,1.06
	s-0.68,0.62-1.06,0.87s-0.79,0.47-1.21,0.65c-0.42,0.18-0.86,0.31-1.31,0.4S7.46,14,7,14c-0.46,0-0.91-0.04-1.37-0.13
	c-0.45-0.09-0.89-0.22-1.31-0.4s-0.83-0.39-1.21-0.65s-0.74-0.55-1.06-0.87c-0.33-0.33-0.62-0.68-0.87-1.06S0.71,10.1,0.53,9.68
	c-0.18-0.42-0.31-0.86-0.4-1.31S0,7.46,0,7c0-0.46,0.04-0.91,0.13-1.37c0.09-0.45,0.22-0.89,0.4-1.31C0.71,3.9,0.92,3.49,1.18,3.11
	c0.26-0.38,0.55-0.74,0.87-1.06c0.33-0.33,0.68-0.62,1.06-0.87S3.9,0.71,4.32,0.53s0.86-0.31,1.31-0.4C6.09,0.04,6.54,0,7,0z"/>
<polyline class="st1" points="5.88,4.49 8.18,6.79 5.88,9.09 "/>
</svg>
