<?xml version="1.0" encoding="utf-8"?>
<!-- Generator: Adobe Illustrator 24.1.0, SVG Export Plug-In . SVG Version: 6.00 Build 0)  -->
<svg version="1.1" id="Layer_1" xmlns="http://www.w3.org/2000/svg" xmlns:xlink="http://www.w3.org/1999/xlink" x="0px" y="0px"
	 viewBox="0 0 30 30" style="enable-background:new 0 0 30 30;" xml:space="preserve">
<style type="text/css">
	.st0{fill:#203C52;}
	.st1{fill:none;stroke:#FFFFFF;stroke-width:1.3;stroke-linecap:round;stroke-linejoin:round;}
	.st2{fill:none;stroke:#FFFFFF;stroke-width:1.3;}
</style>
<rect class="st0" width="30" height="30"/>
<polyline class="st1" points="17.8,9.5 12.2,15.2 17.8,20.8 "/>
<path class="st2" d="M0.6,18v-6c0-0.7,0.1-1.5,0.2-2.2C1,9.1,1.2,8.3,1.5,7.7c0.3-0.7,0.6-1.3,1-2S3.4,4.5,4,4s1.1-1,1.7-1.4
	s1.3-0.8,2-1C8.3,1.2,9.1,1,9.8,0.9c0.7-0.1,1.5-0.2,2.2-0.2h6c0.7,0,1.5,0.1,2.2,0.2s1.4,0.4,2.1,0.6c0.7,0.3,1.3,0.6,2,1
	S25.5,3.4,26,4s1,1.1,1.4,1.7c0.4,0.6,0.8,1.3,1,2c0.3,0.7,0.5,1.4,0.6,2.1c0.1,0.7,0.2,1.5,0.2,2.2v6c0,0.7-0.1,1.5-0.2,2.2
	s-0.4,1.4-0.6,2.1s-0.6,1.3-1,2S26.6,25.5,26,26s-1.1,1-1.7,1.4c-0.6,0.4-1.3,0.8-2,1s-1.4,0.5-2.1,0.6s-1.5,0.2-2.2,0.2h-6
	c-0.7,0-1.5-0.1-2.2-0.2c-0.7-0.1-1.4-0.4-2.1-0.6c-0.7-0.3-1.3-0.6-2-1S4.5,26.6,4,26s-1-1.1-1.4-1.7s-0.8-1.3-1-2S1,20.9,0.9,20.2
	S0.6,18.7,0.6,18z"/>
</svg>
