<?xml version="1.0" encoding="utf-8"?>
<!-- Generator: Adobe Illustrator 24.1.3, SVG Export Plug-In . SVG Version: 6.00 Build 0)  -->
<svg version="1.1" id="Layer_1" xmlns="http://www.w3.org/2000/svg" xmlns:xlink="http://www.w3.org/1999/xlink" x="0px" y="0px"
	 viewBox="0 0 30 30" style="enable-background:new 0 0 30 30;" xml:space="preserve">
<style type="text/css">
	.st0{fill:none;stroke:#FFFFFF;stroke-width:1.3;stroke-linecap:round;stroke-linejoin:round;}
	.st1{fill:none;stroke:#FFFFFF;stroke-width:1.3;}
</style>
<polyline class="st0" points="17.19,9.52 11.52,15.18 17.19,20.85 "/>
<path class="st1" d="M1.46,18.06V12.3c0-0.72,0.07-1.42,0.21-2.12c0.14-0.7,0.35-1.38,0.62-2.04C2.56,7.48,2.9,6.85,3.3,6.25
	S4.15,5.11,4.65,4.6S5.71,3.65,6.3,3.25s1.22-0.73,1.88-1.01c0.66-0.27,1.34-0.48,2.04-0.62c0.7-0.14,1.41-0.21,2.12-0.21h5.76
	c0.72,0,1.42,0.07,2.12,0.21c0.7,0.14,1.38,0.35,2.04,0.62c0.66,0.27,1.29,0.61,1.88,1.01S25.3,4.1,25.81,4.6s0.96,1.06,1.35,1.65
	c0.4,0.59,0.73,1.22,1.01,1.88c0.27,0.66,0.48,1.34,0.62,2.04c0.14,0.7,0.21,1.41,0.21,2.12v5.76c0,0.72-0.07,1.42-0.21,2.12
	c-0.14,0.7-0.35,1.38-0.62,2.04c-0.27,0.66-0.61,1.29-1.01,1.88c-0.4,0.59-0.85,1.14-1.35,1.65s-1.06,0.96-1.65,1.35
	c-0.59,0.4-1.22,0.73-1.88,1.01c-0.66,0.27-1.34,0.48-2.04,0.62c-0.7,0.14-1.41,0.21-2.12,0.21h-5.76c-0.72,0-1.42-0.07-2.12-0.21
	c-0.7-0.14-1.38-0.35-2.04-0.62c-0.66-0.27-1.29-0.61-1.88-1.01c-0.59-0.4-1.14-0.85-1.65-1.35s-0.96-1.06-1.35-1.65
	s-0.73-1.22-1.01-1.88c-0.27-0.66-0.48-1.34-0.62-2.04C1.53,19.48,1.46,18.78,1.46,18.06z"/>
</svg>
