<?xml version="1.0" encoding="utf-8"?>
<!-- Generator: Adobe Illustrator 24.1.3, SVG Export Plug-In . SVG Version: 6.00 Build 0)  -->
<svg version="1.1" id="Layer_1" xmlns="http://www.w3.org/2000/svg" xmlns:xlink="http://www.w3.org/1999/xlink" x="0px" y="0px"
	 viewBox="0 0 26 26" style="enable-background:new 0 0 26 26;" xml:space="preserve">
<style type="text/css">
	.st0{fill:none;stroke:#314A5D;}
	.st1{fill:none;stroke:#314A5D;stroke-width:2;stroke-linecap:round;}
</style>
<path class="st0" d="M0.5,20.67V5c0-0.3,0.03-0.59,0.09-0.88c0.06-0.29,0.14-0.57,0.26-0.84C0.96,3,1.09,2.75,1.26,2.5
	c0.16-0.25,0.35-0.47,0.56-0.68c0.21-0.21,0.44-0.4,0.68-0.56C2.75,1.09,3,0.96,3.28,0.84s0.55-0.2,0.84-0.26S4.7,0.5,5,0.5h15.67
	c0.3,0,0.59,0.03,0.88,0.09c0.29,0.06,0.57,0.14,0.84,0.26s0.53,0.25,0.78,0.42c0.25,0.16,0.47,0.35,0.68,0.56
	c0.21,0.21,0.4,0.44,0.56,0.68s0.3,0.51,0.42,0.78c0.11,0.27,0.2,0.55,0.26,0.84C25.14,4.41,25.17,4.7,25.17,5v15.67
	c0,0.3-0.03,0.59-0.09,0.88c-0.06,0.29-0.14,0.57-0.26,0.84s-0.25,0.53-0.42,0.78s-0.35,0.47-0.56,0.68
	c-0.21,0.21-0.44,0.4-0.68,0.56c-0.25,0.16-0.51,0.3-0.78,0.42s-0.55,0.2-0.84,0.26c-0.29,0.06-0.58,0.09-0.88,0.09H5
	c-0.3,0-0.59-0.03-0.88-0.09c-0.29-0.06-0.57-0.14-0.84-0.26s-0.53-0.25-0.78-0.42s-0.47-0.35-0.68-0.56
	c-0.21-0.21-0.4-0.44-0.56-0.68c-0.16-0.25-0.3-0.51-0.42-0.78s-0.2-0.55-0.26-0.84C0.53,21.25,0.5,20.96,0.5,20.67z"/>
<line class="st1" x1="16.83" y1="12.83" x2="7.7" y2="12.83"/>
</svg>
