<?xml version="1.0" encoding="utf-8"?>
<!-- Generator: Adobe Illustrator 24.1.0, SVG Export Plug-In . SVG Version: 6.00 Build 0)  -->
<svg version="1.1" id="Layer_1" xmlns="http://www.w3.org/2000/svg" xmlns:xlink="http://www.w3.org/1999/xlink" x="0px" y="0px"
	 viewBox="0 0 168 205" style="enable-background:new 0 0 168 205;" xml:space="preserve">
<style type="text/css">
	.st0{fill:#3F3D56;}
	.st1{fill:#203C52;}
	.st2{opacity:0.149;}
	.st3{opacity:0.102;}
	.st4{fill:#F7AE3B;}
	.st5{fill:#EDC4CA;}
	.st6{fill:#8C9BA5;}
	.st7{fill:#2F2E41;}
	.st8{fill:#BBC4CA;}
	.st9{opacity:0.5373;fill:#8C9BA5;}
	.st10{opacity:9.410000e-02;}
	.st11{fill:#FFFFFF;}
	.st12{font-family:'Montserrat-Medium';}
	.st13{font-size:21px;}
</style>
<path class="st0" d="M75.6,0.6l0-0.5C76.6,0,77.7,0,78.7,0l0,0.5C77.7,0.5,76.6,0.6,75.6,0.6z M85,0.8c-1-0.1-2.1-0.1-3.1-0.2l0-0.5
	c1.1,0,2.1,0.1,3.2,0.2L85,0.8z M69.3,1.1l-0.1-0.5c1-0.1,2.1-0.2,3.2-0.3l0,0.5C71.4,0.9,70.3,1,69.3,1.1z M91.3,1.5
	c-1-0.2-2.1-0.3-3.1-0.4l0.1-0.5c1,0.1,2.1,0.3,3.1,0.4L91.3,1.5z M63.1,2.1L63,1.6C64,1.4,65,1.2,66.1,1l0.1,0.5
	C65.1,1.7,64.1,1.9,63.1,2.1z M97.5,2.8c-1-0.2-2.1-0.5-3.1-0.7l0.1-0.5c1,0.2,2.1,0.4,3.1,0.7L97.5,2.8z M56.9,3.6l-0.1-0.5
	c1-0.3,2-0.6,3.1-0.8L60,2.8C59,3.1,57.9,3.3,56.9,3.6z M103.5,4.5c-1-0.3-2-0.6-3-0.9l0.1-0.5c1,0.3,2,0.6,3,0.9L103.5,4.5z
	 M51,5.6l-0.2-0.5c1-0.4,2-0.7,3-1.1l0.2,0.5C52.9,4.9,51.9,5.3,51,5.6z M109.4,6.7c-1-0.4-2-0.8-2.9-1.2l0.2-0.5c1,0.4,2,0.8,3,1.2
	L109.4,6.7z M45.2,8.1L45,7.6c0.9-0.5,1.9-0.9,2.9-1.3L48,6.8C47.1,7.2,46.1,7.7,45.2,8.1z M115.2,9.4c-0.9-0.5-1.9-1-2.8-1.4
	l0.2-0.5c1,0.5,1.9,0.9,2.8,1.4L115.2,9.4z M39.6,11.1l-0.3-0.5c0.9-0.5,1.8-1,2.8-1.5l0.2,0.5C41.4,10,40.5,10.5,39.6,11.1z
	 M120.6,12.6c-0.9-0.6-1.8-1.1-2.7-1.6l0.3-0.5c0.9,0.5,1.8,1.1,2.7,1.6L120.6,12.6z M34.3,14.4L34,14c0.9-0.6,1.8-1.2,2.6-1.8
	l0.3,0.4C36,13.2,35.2,13.8,34.3,14.4z M125.8,16.2c-0.8-0.6-1.7-1.2-2.6-1.8l0.3-0.4c0.9,0.6,1.7,1.2,2.6,1.9L125.8,16.2z
	 M29.3,18.2l-0.3-0.4c0.8-0.7,1.7-1.3,2.5-2l0.3,0.4C30.9,16.9,30.1,17.6,29.3,18.2z M130.7,20.2c-0.8-0.7-1.6-1.4-2.4-2l0.3-0.4
	c0.8,0.7,1.6,1.4,2.4,2.1L130.7,20.2z M24.5,22.4L24.2,22c0.8-0.7,1.5-1.5,2.3-2.2l0.3,0.4C26.1,21,25.3,21.7,24.5,22.4z
	 M135.3,24.5c-0.7-0.8-1.5-1.5-2.2-2.2l0.4-0.4c0.8,0.7,1.5,1.5,2.2,2.2L135.3,24.5z M20.2,27l-0.4-0.3c0.7-0.8,1.4-1.6,2.2-2.3
	l0.4,0.4C21.6,25.4,20.9,26.2,20.2,27z M139.5,29.2c-0.7-0.8-1.4-1.6-2-2.4l0.4-0.3c0.7,0.8,1.4,1.6,2.1,2.4L139.5,29.2z M16.2,31.8
	l-0.4-0.3c0.6-0.8,1.3-1.7,2-2.5l0.4,0.3C17.5,30.2,16.8,31,16.2,31.8z M143.3,34.3c-0.6-0.9-1.2-1.7-1.8-2.6l0.4-0.3
	c0.6,0.8,1.3,1.7,1.9,2.6L143.3,34.3z M12.6,37l-0.4-0.3c0.6-0.9,1.2-1.8,1.8-2.7l0.4,0.3C13.8,35.3,13.2,36.2,12.6,37z M146.6,39.6
	c-0.5-0.9-1.1-1.8-1.6-2.7l0.4-0.3c0.6,0.9,1.1,1.8,1.6,2.7L146.6,39.6z M9.4,42.5L9,42.3c0.5-0.9,1-1.9,1.5-2.8l0.5,0.3
	C10.4,40.7,9.9,41.6,9.4,42.5z M149.6,45.1c-0.4-0.9-0.9-1.9-1.4-2.8l0.5-0.2c0.5,0.9,1,1.9,1.4,2.8L149.6,45.1z M6.7,48.2L6.3,48
	c0.4-1,0.9-1.9,1.3-2.9L8,45.3C7.6,46.3,7.2,47.3,6.7,48.2z M152.1,50.9c-0.4-1-0.8-2-1.2-2.9l0.5-0.2c0.4,1,0.8,2,1.2,2.9
	L152.1,50.9z M4.5,54.1L4,54c0.3-1,0.7-2,1.1-3l0.5,0.2C5.2,52.1,4.8,53.1,4.5,54.1z M154.1,56.9c-0.3-1-0.6-2-0.9-3l0.5-0.2
	c0.3,1,0.7,2,0.9,3L154.1,56.9z M2.8,60.2l-0.5-0.1C2.5,59,2.8,58,3.1,57l0.5,0.1C3.3,58.2,3,59.2,2.8,60.2z M155.6,63
	c-0.2-1-0.4-2.1-0.7-3.1l0.5-0.1c0.3,1,0.5,2.1,0.7,3.1L155.6,63z M1.5,66.4L1,66.3c0.2-1,0.4-2.1,0.6-3.1l0.5,0.1
	C1.9,64.3,1.7,65.3,1.5,66.4L1.5,66.4z M156.6,69.2c-0.1-1-0.3-2.1-0.4-3.1l0.5-0.1c0.2,1,0.3,2.1,0.4,3.1L156.6,69.2z M0.8,72.6
	l-0.5,0c0.1-1.1,0.2-2.1,0.3-3.2l0.5,0.1C1,70.5,0.9,71.6,0.8,72.6z M157.1,75.5c0-1-0.1-2.1-0.2-3.1l0.5,0c0.1,1.1,0.2,2.1,0.2,3.2
	L157.1,75.5z M0.5,78.9H0l0-0.1c0-1,0-2.1,0.1-3.1l0.5,0C0.5,76.8,0.5,77.8,0.5,78.9L0.5,78.9z M157.6,82l-0.5,0
	c0-1,0.1-2.1,0.1-3.2l0-0.2h0.5l0,0.2C157.7,79.9,157.7,81,157.6,82z M0.3,85.3c-0.1-1-0.1-2.1-0.2-3.2l0.5,0c0,1,0.1,2.1,0.2,3.1
	L0.3,85.3z M157.1,88.4l-0.5-0.1c0.1-1,0.2-2.1,0.3-3.1l0.5,0C157.4,86.2,157.3,87.3,157.1,88.4L157.1,88.4z M1,91.6
	c-0.2-1-0.3-2.1-0.4-3.1l0.5-0.1c0.1,1,0.3,2.1,0.4,3.1L1,91.6z M156.1,94.6l-0.5-0.1c0.2-1,0.4-2.1,0.6-3.1l0.5,0.1
	C156.5,92.5,156.3,93.6,156.1,94.6L156.1,94.6z M2.3,97.8c-0.3-1-0.5-2.1-0.7-3.1l0.5-0.1c0.2,1,0.4,2.1,0.7,3.1L2.3,97.8z
	 M154.6,100.8l-0.5-0.1c0.3-1,0.6-2,0.8-3l0.5,0.1C155.2,98.7,154.9,99.8,154.6,100.8z M4.1,103.9c-0.3-1-0.7-2-0.9-3l0.5-0.1
	c0.3,1,0.6,2,0.9,3L4.1,103.9z M152.6,106.8l-0.5-0.2c0.4-1,0.7-2,1.1-3l0.5,0.2C153.3,104.8,153,105.8,152.6,106.8z M6.3,109.8
	c-0.4-1-0.8-2-1.2-2.9l0.5-0.2c0.4,1,0.8,2,1.2,2.9L6.3,109.8z M150.1,112.7l-0.5-0.2c0.4-0.9,0.9-1.9,1.3-2.9l0.5,0.2
	C151,110.7,150.6,111.7,150.1,112.7z M9,115.5c-0.5-0.9-1-1.9-1.4-2.8l0.5-0.2c0.4,0.9,0.9,1.9,1.4,2.8L9,115.5z M147.1,118.3
	l-0.5-0.3c0.5-0.9,1-1.8,1.5-2.8l0.5,0.2C148.2,116.4,147.7,117.4,147.1,118.3L147.1,118.3z M12.2,121c-0.6-0.9-1.1-1.8-1.6-2.7
	l0.5-0.3c0.5,0.9,1.1,1.8,1.6,2.7L12.2,121z M143.7,123.7l-0.4-0.3c0.6-0.9,1.2-1.7,1.7-2.6l0.4,0.3
	C144.9,121.9,144.3,122.8,143.7,123.7z M15.8,126.2c-0.6-0.8-1.3-1.7-1.9-2.6l0.4-0.3c0.6,0.9,1.2,1.7,1.8,2.6L15.8,126.2z
	 M139.9,128.7l-0.4-0.3c0.7-0.8,1.3-1.6,1.9-2.5l0.4,0.3C141.3,127.1,140.6,127.9,139.9,128.7z M19.8,131.2
	c-0.7-0.8-1.4-1.6-2.1-2.4l0.4-0.3c0.7,0.8,1.3,1.6,2,2.4L19.8,131.2z M135.7,133.5l-0.4-0.4c0.7-0.8,1.4-1.5,2.1-2.3l0.4,0.3
	C137.2,132,136.4,132.7,135.7,133.5z M24.2,135.7c-0.8-0.7-1.5-1.5-2.2-2.2l0.4-0.4c0.7,0.8,1.5,1.5,2.2,2.2L24.2,135.7z
	 M131.1,137.9l-0.3-0.4c0.8-0.7,1.6-1.4,2.3-2.1l0.4,0.4C132.7,136.5,131.9,137.2,131.1,137.9L131.1,137.9z M29,139.9
	c-0.8-0.7-1.6-1.4-2.4-2.1l0.3-0.4c0.8,0.7,1.6,1.4,2.4,2L29,139.9z M126.2,141.9l-0.3-0.4c0.8-0.6,1.7-1.3,2.5-1.9l0.3,0.4
	C127.9,140.6,127.1,141.3,126.2,141.9L126.2,141.9z M34.1,143.8c-0.9-0.6-1.7-1.2-2.6-1.9l0.3-0.4c0.8,0.6,1.7,1.2,2.6,1.8
	L34.1,143.8z M121,145.5l-0.3-0.4c0.9-0.6,1.8-1.1,2.6-1.7l0.3,0.4C122.8,144.4,121.9,145,121,145.5L121,145.5z M39.4,147.2
	c-0.9-0.5-1.8-1.1-2.7-1.6l0.3-0.4c0.9,0.6,1.8,1.1,2.7,1.6L39.4,147.2z M115.5,148.7l-0.2-0.5c0.9-0.5,1.9-1,2.8-1.5l0.3,0.5
	C117.4,147.7,116.4,148.2,115.5,148.7z M45.1,150.1c-1-0.5-1.9-0.9-2.8-1.4l0.2-0.5c0.9,0.5,1.9,1,2.8,1.4L45.1,150.1z M109.8,151.4
	l-0.2-0.5c1-0.4,1.9-0.8,2.9-1.3l0.2,0.5C111.7,150.6,110.8,151,109.8,151.4L109.8,151.4z M50.9,152.6c-1-0.4-2-0.8-3-1.2l0.2-0.5
	c1,0.4,2,0.8,2.9,1.2L50.9,152.6z M103.9,153.7l-0.2-0.5c1-0.3,2-0.7,3-1.1l0.2,0.5C105.9,153,104.9,153.3,103.9,153.7z M57,154.6
	c-1-0.3-2-0.6-3-0.9l0.2-0.5c1,0.3,2,0.6,3,0.9L57,154.6z M97.8,155.4l-0.1-0.5c1-0.3,2-0.5,3-0.8l0.1,0.5
	C99.8,154.9,98.8,155.2,97.8,155.4z M63.1,156.1c-1-0.2-2.1-0.4-3.1-0.7l0.1-0.5c1,0.2,2.1,0.5,3.1,0.7L63.1,156.1z M91.5,156.7
	l-0.1-0.5c1-0.2,2.1-0.4,3.1-0.6l0.1,0.5C93.6,156.3,92.6,156.5,91.5,156.7z M69.4,157.1c-1-0.1-2.1-0.3-3.1-0.4l0.1-0.5
	c1,0.2,2.1,0.3,3.1,0.4L69.4,157.1z M85.2,157.5l0-0.5c1-0.1,2.1-0.2,3.1-0.3l0.1,0.5C87.4,157.3,86.3,157.4,85.2,157.5L85.2,157.5z
	 M75.7,157.6c-1.1,0-2.1-0.1-3.2-0.2l0-0.5c1,0.1,2.1,0.1,3.1,0.2L75.7,157.6z M78.9,157.7l0-0.5c1,0,2.1,0,3.2-0.1l0,0.5
	C81,157.7,79.9,157.7,78.9,157.7z"/>
<path class="st1" d="M168,53.9V39.6c-9-2.1-16.7-7.8-21.3-15.8l0,0c-1.1,0.8-2.4,1.2-3.7,1.2h-11.4C137.8,40.4,151.6,51.4,168,53.9z
	"/>
<path class="st1" d="M168,38.8V25c0-4.2-3.4-7.7-7.7-7.7h-11v1.3c0,1.7-0.7,3.4-1.9,4.6C151.7,31.1,159.2,36.7,168,38.8z"/>
<path class="st1" d="M114.9,25h-7.1c-3.5,0-6.3-2.8-6.3-6.3v-1.3H91.1c-4.2,0-7.7,3.4-7.7,7.7l0,170.4c0,2,0.8,4,2.2,5.4
	c1.4,1.4,3.4,2.2,5.4,2.2h69.2c0.3,0,0.6,0,0.9-0.1c3.8-0.5,6.7-3.7,6.7-7.6V70C142.8,67.1,121.8,49.1,114.9,25z"/>
<path class="st1" d="M130.7,25h-15c6.9,23.7,27.5,41.3,52.2,44.2V54.7C151.1,52.1,137,40.8,130.7,25z"/>
<path class="st2" d="M108.5,200.4c0.2-0.2,4.7-4.8,8.5-15.6c3.5-10,7.1-27.4,4-53.6c-5.8-49.6,24-81.3,24.3-81.6l-0.9-0.8
	c-0.1,0.1-7.7,8.1-14.5,22.3c-9,18.7-12.5,39.7-10.1,60.3c5.8,49.6-12,68-12.2,68.2L108.5,200.4z"/>
<path class="st2" d="M154.5,32.9c0.5,0,1,0.1,1.5,0.2c0.5,0.1,1,0.3,1.5,0.5c0.5,0.2,0.9,0.4,1.4,0.7c0.4,0.3,0.8,0.6,1.2,1
	c0.4,0.4,0.7,0.8,1,1.2c0.3,0.4,0.5,0.9,0.7,1.4c0.2,0.5,0.4,1,0.5,1.5c0.1,0.5,0.2,1,0.2,1.5s-0.1,1-0.2,1.5
	c-0.1,0.5-0.3,1-0.5,1.5c-0.2,0.5-0.4,0.9-0.7,1.4c-0.3,0.4-0.6,0.8-1,1.2c-0.4,0.4-0.8,0.7-1.2,1c-0.4,0.3-0.9,0.5-1.4,0.7
	c-0.5,0.2-1,0.4-1.5,0.5c-0.5,0.1-1,0.2-1.5,0.2c-0.5,0-1-0.1-1.5-0.2s-1-0.3-1.5-0.5c-0.5-0.2-0.9-0.4-1.4-0.7
	c-0.4-0.3-0.8-0.6-1.2-1c-0.4-0.4-0.7-0.8-1-1.2c-0.3-0.4-0.5-0.9-0.7-1.4c-0.2-0.5-0.4-1-0.5-1.5c-0.1-0.5-0.2-1-0.2-1.5
	s0.1-1,0.2-1.5s0.3-1,0.5-1.5c0.2-0.5,0.4-0.9,0.7-1.4c0.3-0.4,0.6-0.8,1-1.2c0.4-0.4,0.8-0.7,1.2-1c0.4-0.3,0.9-0.5,1.4-0.7
	c0.5-0.2,1-0.4,1.5-0.5S154,32.9,154.5,32.9z"/>
<path class="st2" d="M123.2,55.5c0.5,0,1,0.1,1.5,0.2s1,0.3,1.5,0.5c0.5,0.2,0.9,0.4,1.4,0.7c0.4,0.3,0.8,0.6,1.2,1
	c0.4,0.4,0.7,0.8,1,1.2c0.3,0.4,0.5,0.9,0.7,1.4c0.2,0.5,0.4,1,0.5,1.5c0.1,0.5,0.2,1,0.2,1.5s-0.1,1-0.2,1.5
	c-0.1,0.5-0.3,1-0.5,1.5c-0.2,0.5-0.4,0.9-0.7,1.4c-0.3,0.4-0.6,0.8-1,1.2c-0.4,0.4-0.8,0.7-1.2,1c-0.4,0.3-0.9,0.5-1.4,0.7
	c-0.5,0.2-1,0.4-1.5,0.5s-1,0.2-1.5,0.2s-1-0.1-1.5-0.2c-0.5-0.1-1-0.3-1.5-0.5c-0.5-0.2-0.9-0.4-1.4-0.7c-0.4-0.3-0.8-0.6-1.2-1
	c-0.4-0.4-0.7-0.8-1-1.2c-0.3-0.4-0.5-0.9-0.7-1.4s-0.4-1-0.5-1.5c-0.1-0.5-0.2-1-0.2-1.5s0.1-1,0.2-1.5s0.3-1,0.5-1.5
	s0.4-0.9,0.7-1.4c0.3-0.4,0.6-0.8,1-1.2c0.4-0.4,0.8-0.7,1.2-1c0.4-0.3,0.9-0.5,1.4-0.7c0.5-0.2,1-0.4,1.5-0.5
	C122.2,55.5,122.7,55.5,123.2,55.5z"/>
<path class="st3" d="M135.2,78.5c0.5,0,1,0.1,1.5,0.2c0.5,0.1,1,0.3,1.5,0.5c0.5,0.2,0.9,0.4,1.4,0.7c0.4,0.3,0.8,0.6,1.2,1
	c0.4,0.4,0.7,0.8,1,1.2c0.3,0.4,0.5,0.9,0.7,1.4c0.2,0.5,0.4,1,0.5,1.5c0.1,0.5,0.2,1,0.2,1.5c0,0.5-0.1,1-0.2,1.5
	c-0.1,0.5-0.3,1-0.5,1.5c-0.2,0.5-0.4,0.9-0.7,1.4c-0.3,0.4-0.6,0.8-1,1.2c-0.4,0.4-0.8,0.7-1.2,1c-0.4,0.3-0.9,0.5-1.4,0.7
	c-0.5,0.2-1,0.4-1.5,0.5c-0.5,0.1-1,0.2-1.5,0.2c-0.5,0-1-0.1-1.5-0.2s-1-0.3-1.5-0.5s-0.9-0.4-1.4-0.7c-0.4-0.3-0.8-0.6-1.2-1
	c-0.4-0.4-0.7-0.8-1-1.2c-0.3-0.4-0.5-0.9-0.7-1.4c-0.2-0.5-0.4-1-0.5-1.5s-0.2-1-0.2-1.5c0-0.5,0.1-1,0.2-1.5
	c0.1-0.5,0.3-1,0.5-1.5c0.2-0.5,0.4-0.9,0.7-1.4c0.3-0.4,0.6-0.8,1-1.2c0.4-0.4,0.8-0.7,1.2-1c0.4-0.3,0.9-0.5,1.4-0.7
	s1-0.4,1.5-0.5S134.7,78.5,135.2,78.5z"/>
<path class="st2" d="M111.1,89.6c0.5,0,1,0.1,1.5,0.2s1,0.3,1.5,0.5s0.9,0.4,1.4,0.7c0.4,0.3,0.8,0.6,1.2,1s0.7,0.8,1,1.2
	s0.5,0.9,0.7,1.4c0.2,0.5,0.4,1,0.5,1.5c0.1,0.5,0.2,1,0.2,1.5c0,0.5-0.1,1-0.2,1.5c-0.1,0.5-0.3,1-0.5,1.5s-0.4,0.9-0.7,1.4
	s-0.6,0.8-1,1.2s-0.8,0.7-1.2,1c-0.4,0.3-0.9,0.5-1.4,0.7s-1,0.4-1.5,0.5s-1,0.2-1.5,0.2s-1-0.1-1.5-0.2c-0.5-0.1-1-0.3-1.5-0.5
	c-0.5-0.2-0.9-0.4-1.4-0.7s-0.8-0.6-1.2-1s-0.7-0.8-1-1.2c-0.3-0.4-0.5-0.9-0.7-1.4c-0.2-0.5-0.4-1-0.5-1.5s-0.2-1-0.2-1.5
	c0-0.5,0.1-1,0.2-1.5c0.1-0.5,0.3-1,0.5-1.5c0.2-0.5,0.4-0.9,0.7-1.4c0.3-0.4,0.6-0.8,1-1.2s0.8-0.7,1.2-1c0.4-0.3,0.9-0.5,1.4-0.7
	c0.5-0.2,1-0.4,1.5-0.5C110,89.7,110.6,89.6,111.1,89.6z"/>
<path class="st2" d="M131.1,120.9c0.5,0,1,0.1,1.5,0.2c0.5,0.1,1,0.3,1.5,0.5c0.5,0.2,0.9,0.4,1.4,0.7c0.4,0.3,0.8,0.6,1.2,1
	c0.4,0.4,0.7,0.8,1,1.2c0.3,0.4,0.5,0.9,0.7,1.4c0.2,0.5,0.4,1,0.5,1.5c0.1,0.5,0.2,1,0.2,1.5c0,0.5-0.1,1-0.2,1.5
	c-0.1,0.5-0.3,1-0.5,1.5c-0.2,0.5-0.4,0.9-0.7,1.4c-0.3,0.4-0.6,0.8-1,1.2c-0.4,0.4-0.8,0.7-1.2,1c-0.4,0.3-0.9,0.5-1.4,0.7
	c-0.5,0.2-1,0.4-1.5,0.5c-0.5,0.1-1,0.2-1.5,0.2c-0.5,0-1-0.1-1.5-0.2s-1-0.3-1.5-0.5c-0.5-0.2-0.9-0.4-1.4-0.7
	c-0.4-0.3-0.8-0.6-1.2-1c-0.4-0.4-0.7-0.8-1-1.2c-0.3-0.4-0.5-0.9-0.7-1.4s-0.4-1-0.5-1.5s-0.2-1-0.2-1.5c0-0.5,0.1-1,0.2-1.5
	c0.1-0.5,0.3-1,0.5-1.5c0.2-0.5,0.4-0.9,0.7-1.4c0.3-0.4,0.6-0.8,1-1.2s0.8-0.7,1.2-1c0.4-0.3,0.9-0.5,1.4-0.7s1-0.4,1.5-0.5
	S130.6,120.9,131.1,120.9z"/>
<path class="st2" d="M103.8,199.6c0,0,12.4-17.1-7.3-37L103.8,199.6z"/>
<path class="st2" d="M113.4,201.5c0,0,8.4-19.3,35.6-12.5L113.4,201.5z"/>
<path class="st4" d="M92.5,144.1V135c0-0.3,0.1-0.5,0.2-0.8c0.1-0.2,0.2-0.5,0.4-0.6c0.2-0.2,0.4-0.3,0.6-0.4
	c0.2-0.1,0.5-0.2,0.8-0.2h62.8c0.3,0,0.5,0.1,0.8,0.2c0.2,0.1,0.5,0.2,0.6,0.4c0.2,0.2,0.3,0.4,0.4,0.6c0.1,0.2,0.2,0.5,0.2,0.8v9.1
	c0,0.3-0.1,0.5-0.2,0.8c-0.1,0.2-0.2,0.5-0.4,0.6c-0.2,0.2-0.4,0.3-0.6,0.4c-0.2,0.1-0.5,0.2-0.8,0.2H94.5c-0.3,0-0.5-0.1-0.8-0.2
	c-0.2-0.1-0.5-0.2-0.6-0.4c-0.2-0.2-0.3-0.4-0.4-0.6S92.5,144.4,92.5,144.1z"/>
<path class="st4" d="M112.8,105.1c-5.5-8.2-4.2-19.3,3.1-26c7.3-6.7,18.4-7.1,26.1-0.9c7.7,6.2,9.8,17.1,4.8,25.7
	c-4.8,8.3-14.8,12-24.1,8.8c0,0-0.3-0.1-0.6-0.2c-3.5,2-9.9,4-9.9,4S112.9,109.3,112.8,105.1L112.8,105.1z"/>
<path class="st5" d="M37.6,120.8c0,0-2.1,9.2-0.3,9.2s5.5-4.3,5.5-4.3v-2.4L37.6,120.8z"/>
<rect x="38.7" y="187.3" class="st5" width="7.3" height="6.1"/>
<polygon class="st6" points="42.1,112.7 36.6,121.3 40.5,121.3 "/>
<polygon class="st5" points="62.2,186.3 63.7,193.4 71.4,191.5 69.5,185.4 "/>
<path class="st7" d="M39.3,123.1c0,0-2.4,1.2-2.7,6.7c-0.3,5.5,0.9,19.9,0.9,19.9s-1.2,6.4,0,12.2c1.2,5.8-1.2,26.9,0.3,26.9
	c1.5,0,9.5,0.9,9.8,0c0.3-0.9,0.6-14.7,0.6-14.7s2.4-7,0-11.3c0,0,5.5,4.6,5.5,5.8c0,1.2,5.8,20.2,8.6,20.5
	c2.7,0.3,10.4-0.3,8.9-3.1c-1.5-2.7-5.2-15.3-5.2-15.3s-2.7-9.2-7.6-13.1l2.4-19.5c0,0,5.2-13.1,2.1-15
	C59.8,121.3,39.3,123.1,39.3,123.1z"/>
<path class="st5" d="M48.5,57.4c0.5,0,1,0.1,1.5,0.2c0.5,0.1,1,0.3,1.5,0.5s0.9,0.4,1.4,0.7c0.4,0.3,0.8,0.6,1.2,1
	c0.4,0.4,0.7,0.8,1,1.2c0.3,0.4,0.5,0.9,0.7,1.4c0.2,0.5,0.4,1,0.5,1.5c0.1,0.5,0.2,1,0.2,1.5c0,0.5-0.1,1-0.2,1.5
	c-0.1,0.5-0.3,1-0.5,1.5c-0.2,0.5-0.4,0.9-0.7,1.4c-0.3,0.4-0.6,0.8-1,1.2c-0.4,0.4-0.8,0.7-1.2,1c-0.4,0.3-0.9,0.5-1.4,0.7
	s-1,0.4-1.5,0.5c-0.5,0.1-1,0.2-1.5,0.2c-0.5,0-1-0.1-1.5-0.2s-1-0.3-1.5-0.5c-0.5-0.2-0.9-0.4-1.4-0.7c-0.4-0.3-0.8-0.6-1.2-1
	c-0.4-0.4-0.7-0.8-1-1.2s-0.5-0.9-0.7-1.4s-0.4-1-0.5-1.5c-0.1-0.5-0.2-1-0.2-1.5c0-0.5,0.1-1,0.2-1.5c0.1-0.5,0.3-1,0.5-1.5
	s0.4-0.9,0.7-1.4s0.6-0.8,1-1.2c0.4-0.4,0.8-0.7,1.2-1c0.4-0.3,0.9-0.5,1.4-0.7c0.5-0.2,1-0.4,1.5-0.5S47.9,57.4,48.5,57.4z"/>
<path class="st5" d="M44.5,70.3c0,0,3.1,10.1,2.1,11.3c-0.9,1.2,9.8-6.7,9.8-6.7s-4-2.7-2.4-6.7L44.5,70.3z"/>
<path class="st8" d="M57.3,73.9c0,0-3.7,1.2-5.5,3.4c-1.8,2.1-6.1,2.4-6.1,2.4s-3.8,2.1-5.2,5.8c-1.5,3.9-0.6,9.4,0,10.7
	c1.2,2.4,1.2,8.6,1.2,8.6l-1.5,14.1c0,0-5.5,5.2-1.2,5.8c4.3,0.6,11.9-0.3,16.5,0c4.6,0.3,9.8,0.9,8.2-2.1
	c-1.5-3.1-3.4-5.2-1.5-11.3c1.4-4.8,1.4-22.7,1.3-30.2c0-2.1-1.1-4.1-3-5.1L57.3,73.9z"/>
<path class="st5" d="M45.4,120.7c0,0-1.4,3.1-1.5,4.9c-1.1,14.2,6.7,0,6.7,0v-2.4L45.4,120.7z"/>
<path class="st7" d="M66.8,190.9c0,0-4.6-3.4-4.6-1.5c0,1.8-5.2,9.2-5.2,9.2s-8.6,6.1-1.5,6.1c7,0,10.1-1.2,10.1-1.2l7.3-4.9
	c0,0,1.8-2.1,1.2-4.6c-0.6-2.4-2.7-5.8-2.7-5.8S68.9,191.5,66.8,190.9z"/>
<path class="st7" d="M39.9,191.8c0,0-0.6-3.1-2.7-1.5c-2.1,1.5-7.9,6.1-7.9,6.1s-10.7,2.4-4,5.5c6.7,3.1,22-1.2,22-1.2
	s0.6-9.8,0-9.5C46.6,191.5,40.2,192.4,39.9,191.8z"/>
<polygon class="st9" points="52.9,83.6 53.8,102.2 44.9,120.2 43.4,119.6 52.6,102.8 "/>
<path class="st6" d="M60.1,77.9l2.3-0.5c0,0,6.9,5,4.7,15.1c-2.1,10.1-11.6,25.4-11.6,25.4s-2.1,2.7-2.7,3.4c-0.6,0.6-1.8,0-1.2,0.9
	c0.6,0.9-0.9,1.5-0.9,1.5s-6.7,0-6.1-2.4c0.6-2.4,11-19.9,11-19.9L54,85.2C54,85.2,52.7,77.3,60.1,77.9z"/>
<polygon class="st10" points="63,106.2 63,104 52.6,121.1 "/>
<path class="st7" d="M42.8,58l-1.3-0.5c0,0,2.7-3,6.6-2.8L47,53.6c0,0,2.6-1.1,5,1.7c1.3,1.5,2.7,3.2,3.6,5.1H57l-0.6,1.3l2.1,1.3
	l-2.1-0.2c0.2,1.1,0.1,2.3-0.2,3.3l0.1,1c0,0-2.4-3.8-2.4-4.3v1.3c0,0-1.3-1.2-1.3-2L51.8,63l-0.4-1.4L47,63l0.7-1.2L45,62.2
	l1.1-1.4c0,0-3.1,1.7-3.2,3.2c-0.1,1.4-1.7,3.3-1.7,3.3l-0.7-1.3C40.4,65.9,39.4,60,42.8,58z"/>
<text transform="matrix(1 0 0 1 114.1047 103.8936)" class="st11 st12 st13">*</text>
<text transform="matrix(1 0 0 1 122.9246 103.8936)" class="st11 st12 st13">*</text>
<text transform="matrix(1 0 0 1 131.7449 103.8936)" class="st11 st12 st13">*</text>
</svg>
