<?xml version="1.0" encoding="utf-8"?>
<!-- Generator: Adobe Illustrator 24.1.3, SVG Export Plug-In . SVG Version: 6.00 Build 0)  -->
<svg version="1.1" id="Layer_1" xmlns="http://www.w3.org/2000/svg" xmlns:xlink="http://www.w3.org/1999/xlink" x="0px" y="0px"
	 viewBox="0 0 37 24" style="enable-background:new 0 0 37 24;" xml:space="preserve">
<style type="text/css">
	.st0{fill:none;stroke:#000000;stroke-width:1.5;stroke-miterlimit:10;}
	.st1{fill:none;stroke:#000000;stroke-width:1.5;stroke-linecap:round;stroke-linejoin:round;stroke-miterlimit:10;}
</style>
<path class="st0" d="M32.56,14.16l-1.1,6.72c-0.18,1.08-1.11,1.87-2.19,1.87H7.35c-1.1,0-2.01-0.79-2.19-1.87l-1.06-6.49"/>
<path class="st0" d="M2.84,6.7L2.28,3.34C2.06,1.99,3.1,0.75,4.47,0.75h27.64c1.37,0,2.43,1.22,2.19,2.59L33.75,6.7"/>
<path class="st1" d="M33.88,6.72c1.1,0,2,0.9,2,2v3.43c0,1.1-0.9,2-2,2h-1.31"/>
<path class="st1" d="M32.56,14.14H2.75c-1.1,0-2-0.9-2-2V8.71c0-1.1,0.9-2,2-2H14.5l1.8,1.89h4.13l1.65-1.89h11.79"/>
</svg>
