<?xml version="1.0" encoding="utf-8"?>
<!-- Generator: Adobe Illustrator 24.1.3, SVG Export Plug-In . SVG Version: 6.00 Build 0)  -->
<svg version="1.1" id="Layer_1" xmlns="http://www.w3.org/2000/svg" xmlns:xlink="http://www.w3.org/1999/xlink" x="0px" y="0px"
	 viewBox="0 0 29 33" style="enable-background:new 0 0 29 33;" xml:space="preserve">
<style type="text/css">
	.st0{fill:none;stroke:#FFFFFF;stroke-width:2;stroke-linecap:round;stroke-miterlimit:10;}
	.st1{fill:none;stroke:#FFFFFF;stroke-width:2;stroke-linecap:round;}
</style>
<g>
	<path class="st0" d="M12.43,1c0.3,0.05,0.61,0.08,0.91,0.14c1.57,0.32,2.84,1.13,3.82,2.39c1.04,1.34,1.51,2.88,1.42,4.57
		c-0.16,2.96-2.18,5.47-5,6.12c-2.66,0.6-4.88-0.22-6.61-2.33c-0.87-1.07-1.32-2.33-1.42-3.71C5.36,5.34,6.9,2.75,9.36,1.6
		c0.69-0.32,1.43-0.52,2.19-0.57C11.6,1.02,11.65,1.01,11.69,1C11.94,1,12.19,1,12.43,1z"/>
	<path class="st0" d="M14.86,28.72c-0.9,0.01-1.79-0.01-2.69,0.01c0-0.01,0,0.01,0,0c-1.6,0-3.19,0.01-4.79-0.01
		c-0.91-0.01-1.83-0.05-2.75-0.11c-0.81-0.06-1.62-0.15-2.39-0.44c-0.32-0.12-0.64-0.27-0.88-0.53c-0.22-0.23-0.34-0.5-0.35-0.8
		c-0.05-1.33,0.09-2.63,0.58-3.88c0.82-2.12,2.21-3.73,4.25-4.75c1.09-0.55,2.25-0.82,3.48-0.82c1.93-0.01,3.86-0.02,5.79,0.01
		c1.22,0.02,2.38,0.35,3.44,0.95c0.65,0.36,1.23,0.78,1.75,1.25"/>
	<line class="st1" x1="23.37" y1="23.15" x2="23.37" y2="31.88"/>
	<line class="st1" x1="18.94" y1="27.59" x2="27.66" y2="27.59"/>
</g>
</svg>
