<?xml version="1.0" encoding="utf-8"?>
<!-- Generator: Adobe Illustrator 24.1.3, SVG Export Plug-In . SVG Version: 6.00 Build 0)  -->
<svg version="1.1" id="Layer_1" xmlns="http://www.w3.org/2000/svg" xmlns:xlink="http://www.w3.org/1999/xlink" x="0px" y="0px"
	 viewBox="0 0 24 25" style="enable-background:new 0 0 24 25;" xml:space="preserve">
<style type="text/css">
	.st0{fill:none;stroke:#203C52;stroke-width:1.5;stroke-linecap:round;stroke-linejoin:round;}
</style>
<polyline class="st0" points="20.51,13.13 20.51,23.67 2.95,23.67 2.95,13.13 "/>
<rect x="0.75" y="6.67" class="st0" width="22" height="6"/>
<line class="st0" x1="11.75" y1="23.67" x2="11.75" y2="6.67"/>
<path class="st0" d="M11.73,6.24H6.79c-1.52,0-2.74-1.23-2.74-2.74c0-1.52,1.23-2.74,2.74-2.74C10.63,0.75,11.73,6.24,11.73,6.24z"
	/>
<path class="st0" d="M11.73,6.24h4.94c1.52,0,2.74-1.23,2.74-2.74c0-1.52-1.23-2.74-2.74-2.74C12.83,0.75,11.73,6.24,11.73,6.24z"/>
</svg>
