<?xml version="1.0" encoding="utf-8"?>
<!-- Generator: Adobe Illustrator 24.1.0, SVG Export Plug-In . SVG Version: 6.00 Build 0)  -->
<svg version="1.1" id="Layer_1" xmlns="http://www.w3.org/2000/svg" xmlns:xlink="http://www.w3.org/1999/xlink" x="0px" y="0px"
	 viewBox="0 0 24 22" style="enable-background:new 0 0 24 22;" xml:space="preserve">
<style type="text/css">
	.st0{fill:none;stroke:#FFFFFF;stroke-width:1.8;}
</style>
<path class="st0" d="M18.8,8.4c1.2,1.1,2.3,2.3,3.5,3.5c0.1,0.1,0.2,0.2,0.2,0.4c0,0.4,0,0.7,0,1.1c-0.8,0-1.7,0-2.6,0
	c0,2.3,0,4.7,0,7c-2.5,0-5.1,0-7.6,0c0-1.1,0-2.2,0-3.3c-0.4,0-0.8,0-1.3,0c0,1.1,0,2.2,0,3.3c-2.5,0-5,0-7.5,0c0-2.3,0-4.6,0-7
	c-0.9,0-1.7,0-2.6,0c0-0.4,0-0.8,0-1.3c0-0.1,0.1-0.2,0.2-0.2C3,9.9,4.9,8,6.9,6c1.5-1.5,3.1-3,4.6-4.6c0.1-0.1,0.1-0.1,0.2-0.2
	c1,1,2,2.1,3.1,3.1L18.8,8.4z"/>
</svg>
