<?xml version="1.0" encoding="utf-8"?>
<!-- Generator: Adobe Illustrator 24.1.3, SVG Export Plug-In . SVG Version: 6.00 Build 0)  -->
<svg version="1.1" id="Layer_1" xmlns="http://www.w3.org/2000/svg" xmlns:xlink="http://www.w3.org/1999/xlink" x="0px" y="0px"
	 viewBox="0 0 22 26" style="enable-background:new 0 0 22 26;" xml:space="preserve">
<style type="text/css">
	.st0{fill:none;stroke:#203C52;stroke-width:1.5;stroke-miterlimit:10;}
</style>
<path class="st0" d="M10.77,0.75c0.12,0,0.18,0,0.29,0c0.04,0.01,0.14,0.02,0.18,0.02c0.71,0.05,1.39,0.22,2.03,0.5
	c2.28,1.01,3.7,3.29,3.53,5.76c-0.09,1.21-0.5,2.32-1.31,3.26c-1.28,1.49-2.86,2.25-4.71,2.21h0c-1.85,0.04-3.43-0.72-4.71-2.21
	C5.24,9.36,4.82,8.25,4.74,7.04C4.56,4.56,5.98,2.29,8.26,1.28c0.64-0.29,1.32-0.46,2.03-0.5c0.04,0,0.14-0.01,0.18-0.02
	C10.59,0.75,10.65,0.75,10.77,0.75"/>
<path class="st0" d="M10.68,25.16C10.68,25.15,10.68,25.17,10.68,25.16c1.44,0,2.89,0.01,4.33,0c0.83-0.01,1.66-0.04,2.49-0.09
	c0.73-0.05,1.46-0.13,2.16-0.39c0.29-0.11,0.57-0.24,0.8-0.47c0.2-0.2,0.31-0.44,0.32-0.71c0.04-1.17-0.08-2.31-0.52-3.41
	c-0.74-1.86-2-3.27-3.84-4.16c-0.99-0.48-2.04-0.72-3.15-0.72c-0.83,0-1.66-0.01-2.49-0.01h0c-0.83,0-1.66,0.01-2.49,0.01
	c-1.11,0-2.16,0.24-3.15,0.72c-1.84,0.9-3.1,2.31-3.84,4.16c-0.44,1.1-0.56,2.24-0.52,3.41c0.01,0.27,0.12,0.51,0.32,0.71
	c0.22,0.23,0.5,0.36,0.8,0.47c0.69,0.26,1.43,0.34,2.16,0.39c0.83,0.05,1.66,0.09,2.49,0.09c1.44,0.01,2.89,0,4.33,0
	c0,0.01,0-0.01,0,0"/>
</svg>
