<?xml version="1.0" encoding="utf-8"?>
<!-- Generator: Adobe Illustrator 24.1.0, SVG Export Plug-In . SVG Version: 6.00 Build 0)  -->
<svg version="1.1" id="Layer_1" xmlns="http://www.w3.org/2000/svg" xmlns:xlink="http://www.w3.org/1999/xlink" x="0px" y="0px"
	 viewBox="0 0 14 14" style="enable-background:new 0 0 14 14;" xml:space="preserve">
<style type="text/css">
	.st0{fill:#2AC277;}
	.st1{fill:none;stroke:#FFFFFF;stroke-width:1.5;stroke-linecap:round;}
</style>
<path class="st0" d="M7,0c0.5,0,0.9,0,1.4,0.1c0.5,0.1,0.9,0.2,1.3,0.4c0.4,0.2,0.8,0.4,1.2,0.6s0.7,0.5,1.1,0.9
	c0.3,0.3,0.6,0.7,0.9,1.1c0.3,0.4,0.5,0.8,0.6,1.2c0.2,0.4,0.3,0.9,0.4,1.3C14,6.1,14,6.5,14,7c0,0.5,0,0.9-0.1,1.4
	s-0.2,0.9-0.4,1.3c-0.2,0.4-0.4,0.8-0.6,1.2s-0.5,0.7-0.9,1.1s-0.7,0.6-1.1,0.9s-0.8,0.5-1.2,0.6c-0.4,0.2-0.9,0.3-1.3,0.4
	S7.5,14,7,14c-0.5,0-0.9,0-1.4-0.1c-0.5-0.1-0.9-0.2-1.3-0.4s-0.8-0.4-1.2-0.6s-0.7-0.5-1.1-0.9c-0.3-0.3-0.6-0.7-0.9-1.1
	s-0.5-0.8-0.6-1.2C0.4,9.3,0.2,8.8,0.1,8.4S0,7.5,0,7c0-0.5,0-0.9,0.1-1.4c0.1-0.5,0.2-0.9,0.4-1.3c0.2-0.4,0.4-0.8,0.6-1.2
	c0.3-0.4,0.5-0.7,0.9-1.1c0.3-0.3,0.7-0.6,1.1-0.9s0.8-0.5,1.2-0.6s0.9-0.3,1.3-0.4C6.1,0,6.5,0,7,0z"/>
<polyline class="st1" points="4.4,6.6 6.3,9 10.3,5 "/>
</svg>
