<?xml version="1.0" encoding="utf-8"?>
<!-- Generator: Adobe Illustrator 24.1.0, SVG Export Plug-In . SVG Version: 6.00 Build 0)  -->
<svg version="1.1" id="Layer_1" xmlns="http://www.w3.org/2000/svg" xmlns:xlink="http://www.w3.org/1999/xlink" x="0px" y="0px"
	 viewBox="0 0 16 18" style="enable-background:new 0 0 16 18;" xml:space="preserve">
<style type="text/css">
	.st0{fill:none;stroke:#314A5D;stroke-width:1.8;stroke-linecap:round;stroke-linejoin:round;}
</style>
<path class="st0" d="M14.7,16.4v-1.7c0-1.9-1.5-3.4-3.4-3.4H4.3c-1.9,0-3.4,1.5-3.4,3.4v1.7"/>
<path class="st0" d="M7.8,0.9c0.5,0,0.9,0.1,1.3,0.3c0.4,0.2,0.8,0.4,1.1,0.7C10.5,2.2,10.8,2.6,11,3c0.2,0.4,0.3,0.9,0.3,1.3
	c0,0.5-0.1,0.9-0.3,1.3c-0.2,0.4-0.4,0.8-0.7,1.1C9.9,7.1,9.5,7.4,9.1,7.5C8.7,7.7,8.2,7.8,7.8,7.8c-0.5,0-0.9-0.1-1.3-0.3
	S5.7,7.1,5.4,6.8C5,6.5,4.8,6.1,4.6,5.7C4.4,5.2,4.3,4.8,4.3,4.3c0-0.5,0.1-0.9,0.3-1.3C4.8,2.6,5,2.2,5.4,1.9
	C5.7,1.6,6,1.3,6.5,1.2S7.3,0.9,7.8,0.9z"/>
</svg>
